<svg width="209" height="79" viewBox="0 0 209 79" fill="none" xmlns="http://www.w3.org/2000/svg">
<g clip-path="url(#clip0_515_1047)">
<path d="M66.8262 57.1393C65.8435 56.3421 64.5574 55.9598 63.3238 56.2404C62.4462 56.4397 61.5079 56.09 60.97 55.2806C60.8649 55.122 60.788 54.9471 60.7274 54.7641L59.9549 52.4865C59.874 52.2546 59.781 52.0228 59.6718 51.8032L59.0004 50.4244C58.5475 49.493 57.8518 48.6999 56.9904 48.1265L56.2463 47.6343C55.676 47.2561 55.0451 46.9836 54.3818 46.825C53.2777 46.5647 52.1413 46.6379 51.1019 47.008C51.4578 46.1661 51.7449 45.312 51.9633 44.4457C52.2181 44.6409 52.481 44.8199 52.7519 44.9744C54.8348 46.1702 57.411 45.9343 59.3725 44.5514C60.6101 43.681 61.4553 42.8758 63.7444 43.1686C64.347 43.2459 64.9416 43.2418 65.5078 43.376L63.5705 42.2372C63.4897 42.1884 63.4007 42.1437 63.3117 42.1111C61.6414 41.5092 59.8134 41.7939 58.3331 42.7741C57.6941 43.1971 56.8974 43.4045 56.0521 43.2865C54.5517 43.0791 53.4071 41.8956 53.2413 40.3785C53.0229 38.3775 54.5719 36.6855 56.5172 36.6855C56.7397 36.6855 56.954 36.7059 57.1643 36.7506C58.7214 37.0638 60.327 36.8116 61.7546 36.1243C61.6454 36.1283 61.5322 36.1324 61.4189 36.1324C60.4483 36.1324 59.5181 35.9453 58.6648 35.6077C58.3776 35.4939 58.0986 35.3637 57.8276 35.2173C57.4353 35.0058 57.0389 34.8106 56.6345 34.6153C55.49 34.2737 54.0138 34.1924 52.5983 35.1603C52.3677 35.3149 52.1534 35.4898 51.9512 35.6728C51.7692 34.9611 51.5467 34.2615 51.2798 33.5742C51.1747 31.5528 52.1655 29.5477 54.03 28.4658C55.0855 27.8517 56.2584 27.632 57.3827 27.754C58.1471 27.8354 58.9115 27.8801 59.6799 27.8191L59.8012 27.811C60.7233 27.7378 61.6252 27.4693 62.4381 27.026C63.6272 26.3794 64.4603 25.2243 64.7272 23.8902L64.8809 23.1216C65.0629 22.3651 65.4835 21.694 66.0861 21.2019L67.7402 19.8475L65.5037 20.7138C64.3268 21.1693 63.3521 22.1007 62.9801 23.3127C62.7131 24.175 61.9447 24.8216 60.9781 24.8826C60.788 24.8948 60.598 24.8745 60.4119 24.8379L58.0662 24.3702C57.8235 24.3214 57.5809 24.2888 57.3382 24.2726L55.8135 24.1668C54.7822 24.0977 53.7509 24.3051 52.8288 24.7688L52.0321 25.1673C51.4214 25.4724 50.8713 25.8872 50.4022 26.3875C49.6257 27.2172 49.1242 28.238 48.922 29.324C48.3881 28.6122 47.7936 27.9371 47.1465 27.3026C47.4377 27.1765 47.7248 27.0382 47.9958 26.8796C50.0665 25.6635 51.1504 23.3046 50.9441 20.9009C50.8107 19.3879 50.5437 18.2532 51.939 16.4026C52.3071 15.9145 52.6023 15.398 53.0027 14.971L51.0533 16.0854C50.9684 16.1342 50.8916 16.187 50.8147 16.2481C49.4639 17.4031 48.7925 19.1357 48.8977 20.9172C48.9422 21.6858 48.7238 22.483 48.198 23.1582C47.2678 24.362 45.6784 24.7647 44.2912 24.1505C42.4591 23.3412 41.7756 21.1449 42.7503 19.4489C42.8595 19.2578 42.9889 19.0788 43.1264 18.9161C44.1739 17.7163 44.7603 16.1911 44.8817 14.6049C44.8291 14.7025 44.7765 14.8042 44.7199 14.9018C44.2346 15.7478 43.6077 16.4636 42.8919 17.0371C42.6492 17.2323 42.3985 17.4072 42.1356 17.5699C41.7554 17.8017 41.3874 18.0539 41.0234 18.306C40.1579 19.1317 39.349 20.3762 39.4744 22.0926C39.4906 22.3691 39.5351 22.6416 39.5876 22.906C38.8718 22.7026 38.1519 22.5481 37.428 22.4383C35.6444 21.515 34.423 19.6523 34.423 17.4967C34.423 16.2725 34.8194 15.1377 35.4867 14.2185C35.9397 13.5963 36.3603 12.9496 36.6879 12.25L36.7404 12.1362C37.1368 11.2943 37.3552 10.3791 37.3835 9.44776C37.4199 8.08933 36.8415 6.78377 35.8305 5.88493L35.2481 5.3684C34.69 4.83154 34.3179 4.12792 34.1965 3.35922L33.8609 1.24023L33.4888 3.61952C33.2947 4.87221 33.6101 6.1859 34.4635 7.11728C35.0742 7.78023 35.244 8.77261 34.8153 9.64705C34.7304 9.81787 34.6172 9.97243 34.4958 10.1188L32.9226 11.9287C32.7608 12.1158 32.6112 12.311 32.4737 12.5144L31.6244 13.7874C31.0501 14.6497 30.7103 15.6502 30.6497 16.6873L30.5971 17.5821C30.5566 18.2654 30.6375 18.9527 30.8317 19.6116C31.1593 20.7057 31.7902 21.6574 32.6273 22.3732C31.7376 22.483 30.8559 22.666 29.9945 22.9101C30.0349 22.5928 30.0592 22.2715 30.0552 21.9543C30.043 19.5425 28.5547 17.4194 26.3789 16.3985C25.0078 15.7559 23.8956 15.4224 23.0018 13.2831C22.7673 12.7218 22.468 12.2012 22.2981 11.644L22.2819 13.9013C22.2819 13.9989 22.286 14.0965 22.3062 14.1901C22.6257 15.943 23.7824 17.395 25.3678 18.1922C26.0513 18.5379 26.6256 19.1276 26.9491 19.9207C27.5194 21.332 27.0704 22.9182 25.849 23.8211C24.2354 25.0128 22.0029 24.5085 21.0282 22.8125C20.919 22.6213 20.83 22.422 20.7613 22.2186C20.2517 20.7057 19.2325 19.4326 17.9302 18.5338C17.9909 18.6273 18.0475 18.725 18.1042 18.8226C18.5895 19.6685 18.8928 20.5714 19.0303 21.4825C19.0748 21.7916 19.1031 22.1007 19.1112 22.4098C19.1233 22.8572 19.1557 23.3005 19.188 23.7479C19.4671 24.9152 20.1344 26.2411 21.6753 26.9935C21.922 27.1155 22.1768 27.2131 22.4316 27.2985C21.9099 27.811 21.4205 28.356 20.9594 28.9417C19.273 30.0398 17.0526 30.174 15.1963 29.0962C14.1407 28.4821 13.3642 27.5751 12.9072 26.5339C12.5958 25.8262 12.252 25.1389 11.8152 24.5003L11.7465 24.3986C11.2207 23.63 10.5413 22.9833 9.75261 22.4952C8.59997 21.7835 7.1885 21.637 5.90645 22.0682L5.17038 22.3163C4.43026 22.5359 3.63757 22.5033 2.91768 22.2268L0.923828 21.4622L2.78827 22.9751C3.77104 23.7723 5.05714 24.1546 6.29066 23.874C7.16828 23.6747 8.10656 24.0245 8.64446 24.8338C8.74961 24.9924 8.82645 25.1673 8.88712 25.3504L9.65959 27.628C9.74047 27.8639 9.83349 28.0916 9.94269 28.3113L10.614 29.69C11.067 30.6214 11.7626 31.4145 12.6241 31.988L13.3682 32.4801C13.9385 32.8583 14.5694 33.1308 15.2327 33.2895C16.3368 33.5498 17.4732 33.4765 18.5126 33.1064C18.1567 33.9483 17.8696 34.8024 17.6512 35.6687C17.3964 35.4735 17.1335 35.2946 16.8625 35.14C14.7797 33.9443 12.2035 34.1802 10.242 35.563C9.0044 36.4334 8.15914 37.2387 5.87005 36.9458C5.26744 36.8686 4.67292 36.8726 4.10672 36.7384L6.04395 37.8772C6.12484 37.926 6.21381 37.9708 6.30279 38.0033C7.9731 38.6052 9.80114 38.3205 11.2814 37.3403C11.9204 36.9174 12.7171 36.7099 13.5624 36.8279C15.0628 37.0353 16.2074 38.2189 16.3732 39.7359C16.5916 41.7369 15.0426 43.4289 13.0973 43.4289C12.8748 43.4289 12.6605 43.4086 12.4502 43.3638C10.8931 43.0506 9.28751 43.3028 7.85986 43.9902C7.96905 43.9861 8.0823 43.982 8.19554 43.982C9.16618 43.982 10.0964 44.1691 10.9497 44.5067C11.2369 44.6206 11.5159 44.7507 11.7869 44.8971C12.1792 45.1086 12.5755 45.3038 12.98 45.4991C14.1245 45.8407 15.6007 45.9221 17.0162 44.9541C17.2468 44.7995 17.4611 44.6246 17.6633 44.4416C17.8453 45.1534 18.0678 45.8529 18.3347 46.5403C18.4398 48.5616 17.449 50.5667 15.5845 51.6486C14.529 52.2628 13.3561 52.4824 12.2318 52.3604C11.4674 52.279 10.703 52.2343 9.9346 52.2953L9.81327 52.3034C8.89116 52.3766 7.98928 52.6451 7.17637 53.0884C5.98733 53.7351 5.1542 54.8901 4.88727 56.2242L4.73359 56.9929C4.55159 57.7494 4.13098 58.4204 3.52838 58.9126L1.87425 60.2669L4.11076 59.4006C5.28766 58.9451 6.26235 58.0137 6.63443 56.8017C6.90135 55.9395 7.66977 55.2928 8.63637 55.2318C8.82645 55.2196 9.01654 55.2399 9.20258 55.2765L11.5483 55.7442C11.7909 55.7931 12.0336 55.8256 12.2763 55.8419L13.801 55.9476C14.8323 56.0167 15.8636 55.8093 16.7857 55.3457L17.5824 54.9471C18.1931 54.642 18.7432 54.2272 19.2123 53.7269C19.9888 52.8972 20.4903 51.8764 20.6925 50.7904C21.2264 51.5022 21.8209 52.1773 22.468 52.8118C22.1768 52.9379 21.8896 53.0762 21.6187 53.2348C19.548 54.4509 18.4641 56.8098 18.6704 59.2135C18.8038 60.7265 19.0707 61.8613 17.6755 63.7118C17.3074 64.1999 17.0122 64.7164 16.6118 65.1435L18.5612 64.029C18.6461 63.9802 18.7229 63.9274 18.7998 63.8664C20.1506 62.7113 20.8219 60.9787 20.7168 59.1973C20.6723 58.4286 20.8907 57.6314 21.4165 56.9563C22.3467 55.7524 23.9361 55.3497 25.3233 55.9639C27.1554 56.7732 27.8389 58.9695 26.8642 60.6655C26.755 60.8567 26.6256 61.0356 26.4881 61.1983C25.4406 62.3981 24.8541 63.9233 24.7328 65.5054C24.7854 65.4078 24.838 65.3061 24.8946 65.2085C25.3799 64.3626 26.0068 63.6467 26.7226 63.0733C26.9653 62.878 27.216 62.7032 27.4789 62.5405C27.8591 62.3086 28.2271 62.0565 28.5911 61.8043C29.4566 60.9787 30.2655 59.7341 30.1401 58.0178C30.1239 57.7412 30.0794 57.4687 30.0268 57.2044C30.7427 57.4077 31.4626 57.5623 32.1825 57.6721C33.966 58.5953 35.1874 60.4581 35.1874 62.6137C35.1874 63.8379 34.7911 64.9726 34.1237 65.8918C33.6708 66.5141 33.2502 67.1608 32.9226 67.8603L32.87 67.9742C32.4737 68.8161 32.2553 69.7312 32.227 70.6626C32.1906 72.021 32.7689 73.3266 33.78 74.2254L34.3624 74.742C34.9205 75.2788 35.2926 75.9824 35.4139 76.7511L35.7496 78.8701L36.1217 76.4908C36.3158 75.2381 36.0003 73.9245 35.147 72.9931C34.5363 72.3301 34.3664 71.3377 34.7951 70.4633C34.88 70.2925 34.9933 70.1379 35.1146 69.9915L36.6879 68.1816C36.8496 67.9945 36.9993 67.7993 37.1368 67.5959L37.9861 66.3229C38.5604 65.4607 38.9001 64.4602 38.9608 63.423L39.0133 62.5283C39.0538 61.845 38.9729 61.1576 38.7788 60.4988C38.4512 59.4047 37.8203 58.453 36.9831 57.7372C37.8728 57.6273 38.7545 57.4443 39.616 57.2003C39.5755 57.5175 39.5512 57.8388 39.5553 58.1561C39.5674 60.5679 41.0557 62.691 43.2316 63.7118C44.6026 64.3544 45.7148 64.6879 46.6086 66.8273C46.8432 67.3885 47.1425 67.9091 47.3123 68.4663L47.3285 66.209C47.3285 66.1114 47.3245 66.0138 47.3042 65.9203C46.9847 64.1673 45.828 62.7154 44.2427 61.9182C43.5592 61.5725 42.9849 60.9827 42.6613 60.1897C42.0911 58.7784 42.54 57.1922 43.7614 56.2892C45.3751 55.0976 47.6076 55.6019 48.5822 57.2979C48.6914 57.4891 48.7804 57.6883 48.8492 57.8917C49.3587 59.4047 50.3779 60.6777 51.6802 61.5766C51.6195 61.483 51.5629 61.3854 51.5063 61.2878C51.021 60.4418 50.7176 59.5389 50.5801 58.6279C50.5357 58.3188 50.5073 58.0097 50.4992 57.7006C50.4871 57.2532 50.4548 56.8098 50.4224 56.3625C50.1434 55.1952 49.476 53.8693 47.9351 53.1169C47.6884 52.9949 47.4336 52.8972 47.1789 52.8118C47.7006 52.2994 48.1899 51.7544 48.651 51.1687C50.3375 50.0746 52.5578 49.9363 54.4142 51.0141C55.4697 51.6283 56.2462 52.5353 56.7033 53.5765C57.0147 54.2841 57.3584 54.9715 57.7952 55.61L57.864 55.7117C58.3897 56.4804 59.0692 57.1271 59.8578 57.6151C61.0105 58.3269 62.4219 58.4733 63.704 58.0422L64.4401 57.7941C65.1802 57.5745 65.9729 57.607 66.6928 57.8836L68.6866 58.6482L66.8222 57.1352L66.8262 57.1393ZM34.787 54.6787C32.2553 54.6787 29.7478 53.9994 27.5396 52.7183C24.1787 50.766 21.7724 47.614 20.7694 43.8437C19.7664 40.0735 20.28 36.1365 22.2213 32.7567C24.8097 28.2502 29.6386 25.448 34.8234 25.448C37.3552 25.448 39.8627 26.1272 42.0709 27.4083C45.4317 29.3606 47.8381 32.5126 48.8411 36.2829C49.8441 40.0531 49.3304 43.9902 47.3892 47.37C44.8008 51.8804 39.9719 54.6787 34.787 54.6787Z" fill="black"/>
<path d="M75.25 0.871094V25.2415H208.919V0.871094H75.25ZM94.2745 22.3498H91.763L81.4257 7.87474V22.3498H79.2175V4.30378H81.6481L81.7331 4.42172L92.0623 18.7056V4.30378H94.2705V22.3498H94.2745ZM111.034 6.47157H100.26V12.2591H109.72V14.2154H100.26V20.2389H111.034V22.3538H98.0034V4.35665H111.034V6.47157ZM134.722 22.3498H132.696L132.627 22.1627L127.248 8.02116L121.772 22.3498H119.746L112.984 4.35665H115.414L120.761 19.0594L126.31 4.35665H128.178L133.727 19.0879L139.074 4.35665H141.48L134.718 22.3498H134.722Z" fill="black"/>
<path d="M75.25 51.8294H208.919V27.459H75.25V51.8294ZM134.524 42.4383H136.704V42.8328C136.704 46.1761 139.749 46.8756 142.301 46.8756C145.743 46.8756 147.344 45.8751 147.344 43.7317V43.6544C147.304 41.9137 146.18 41.0474 143.47 40.6651L140.792 40.3234C137.824 39.9492 134.787 39.0423 134.787 35.1744V35.093C134.787 31.1845 138.645 30.3629 141.88 30.3629C146.455 30.3629 148.974 32.3436 148.974 35.939V36.362H146.794V35.9675C146.77 33.5679 145.108 32.3477 141.856 32.3477C137.545 32.3477 137.047 33.9014 137.047 35.0686V35.1459C137.047 36.9802 138.115 37.7855 141.132 38.2126L143.967 38.5827C147.72 39.0626 149.557 40.6854 149.581 43.5446V43.6544C149.581 47.1074 147.134 48.8604 142.305 48.8604C137.476 48.8604 134.528 46.7211 134.528 42.8369V42.4424L134.524 42.4383ZM116.737 30.5744H119.167L119.252 30.6924L129.582 44.9762V30.5704H131.79V48.6164H129.278L118.941 34.1413V48.6164H116.733V30.5704L116.737 30.5744ZM96.7173 30.6273H99.0549V40.7464C99.0549 44.9112 100.822 46.7699 104.782 46.7699C108.741 46.7699 110.508 44.9112 110.508 40.7464V30.6273H112.846V40.6162C112.846 46.1801 110.209 48.8848 104.782 48.8848C99.3542 48.8848 96.7173 46.1801 96.7173 40.6162V30.6273ZM78.7484 42.4383H80.9282V42.8328C80.9282 46.1761 83.9736 46.8756 86.5256 46.8756C89.9673 46.8756 91.5689 45.8751 91.5689 43.7317V43.6544C91.5284 41.9137 90.4041 41.0474 87.6944 40.6651L85.0171 40.3234C82.0485 39.9492 79.0112 39.0423 79.0112 35.1744V35.093C79.0112 31.1845 82.8695 30.3629 86.105 30.3629C90.6791 30.3629 93.1987 32.3436 93.1987 35.939V36.362H91.0189V35.9675C90.9946 33.5679 89.3324 32.3477 86.0807 32.3477C81.7695 32.3477 81.272 33.9014 81.272 35.0686V35.1459C81.272 36.9802 82.3397 37.7855 85.3568 38.2126L88.1919 38.5827C91.945 39.0626 93.7771 40.6854 93.8054 43.5446V43.6544C93.8054 47.1074 91.3586 48.8604 86.5296 48.8604C81.7007 48.8604 78.7524 46.7211 78.7524 42.8369V42.4424L78.7484 42.4383Z" fill="black"/>
<path d="M135.049 61.5458V61.4442C135.029 60.3542 134.657 58.9062 131.66 58.9062H126.168V64.5596H130.69C135.049 64.5596 135.049 62.2901 135.049 61.5458Z" fill="black"/>
<path d="M111.956 72.9852C116.098 72.9852 117.946 71.1347 117.946 66.9862V64.6069C117.946 60.5885 116.098 58.7949 111.956 58.7949C107.815 58.7949 105.967 60.5885 105.967 64.6069V66.9862C105.967 71.1347 107.815 72.9852 111.956 72.9852Z" fill="black"/>
<path d="M136.048 69.6058V69.4757C136.028 68.0847 135.506 66.4863 131.632 66.4863H126.168V72.8799H131.684C134.58 72.8799 136.044 71.7777 136.044 69.6018L136.048 69.6058Z" fill="black"/>
<path d="M75.25 78.4153H208.919V54.0449H75.25V78.4153ZM188.799 56.896L194.242 64.8392L199.662 56.896H202.339L195.399 66.8687V74.9949H193.138V66.9215L186.036 56.896H188.799ZM169.467 56.896H183.994V59.0109H177.871V74.8891H175.586V59.0109H169.463V56.896H169.467ZM163.74 56.896H166.001V74.8891H163.74V56.896ZM148.133 56.896H150.394V72.7742H160.537V74.8891H148.137V56.896H148.133ZM141.642 56.896H143.903V74.8891H141.642V56.896ZM123.907 56.896H131.842C135.49 56.896 137.278 58.2585 137.306 61.0689V61.2031C137.282 63.135 136.416 64.5219 134.791 65.2784C137.12 65.8316 138.329 67.2795 138.386 69.5977V69.736C138.386 72.0868 137.262 74.8891 131.895 74.8891H123.907V56.896ZM103.625 64.5585C103.625 59.259 106.351 56.6845 111.952 56.6845C117.554 56.6845 120.28 59.259 120.28 64.5585V67.0436C120.28 72.4651 117.554 75.1006 111.952 75.1006C106.351 75.1006 103.625 72.4651 103.625 67.0436V64.5585ZM80.269 56.8431H82.8857L90.2262 70.3664L97.4129 56.8431H100.03V74.8891H97.7972V60.8371L91.1402 73.4371H89.3243L82.4813 60.7639V74.8932H80.2731V56.8472L80.269 56.8431Z" fill="black"/>
</g>
<defs>
<clipPath id="clip0_515_1047">
<rect width="208" height="78" fill="white" transform="translate(0.919922 0.871094)"/>
</clipPath>
</defs>
</svg>
